<svg width="37" height="40" viewBox="0 0 37 40" fill="none" xmlns="http://www.w3.org/2000/svg">
<g id="Group 61">
<g id="Group 59">
<path id="Union" fillRule="evenodd" clip-rule="evenodd" d="M14.1597 2.28324C14.1597 1.60863 14.1597 1.27132 14.3692 1.06175C14.5788 0.852173 14.9161 0.852173 15.5907 0.852173H19.8085C20.4831 0.852173 20.8204 0.852173 21.0299 1.06175C21.2395 1.27132 21.2395 1.60863 21.2395 2.28323V12.5186C21.2395 12.7964 21.2395 12.9354 21.1899 13.0615C21.1404 13.1877 21.0458 13.2894 20.8566 13.4929L16.1337 18.5737L12.1174 22.9192C11.908 23.1457 11.8033 23.2589 11.6662 23.3189C11.5291 23.3789 11.3749 23.3789 11.0664 23.3789H8.51092C7.83631 23.3789 7.49901 23.3789 7.28943 23.5885C7.07986 23.7981 7.07986 24.1354 7.07986 24.81V29.9933C7.07986 30.6679 7.07986 31.0052 6.87028 31.2147C6.66071 31.4243 6.3234 31.4243 5.6488 31.4243H1.43106C0.756453 31.4243 0.419148 31.4243 0.209574 31.2147C0 31.0052 0 30.6679 0 29.9933V9.79221C0 9.1176 0 8.7803 0.209574 8.57072C0.419148 8.36115 0.756453 8.36115 1.43106 8.36115H5.6488C6.3234 8.36115 6.66071 8.36115 6.87028 8.57072C7.07986 8.7803 7.07986 9.1176 7.07986 9.79221V14.868C7.07986 15.5426 7.07986 15.8799 7.28943 16.0895C7.49901 16.2991 7.83631 16.2991 8.51092 16.2991H12.7286C13.4032 16.2991 13.7405 16.2991 13.9501 16.0895C14.1597 15.8799 14.1597 15.5426 14.1597 14.868V2.28324Z" fill="url(#paint0_linear_123_98)"/>
<path id="Union_2" fillRule="evenodd" clip-rule="evenodd" d="M21.6012 26.7017C21.4224 26.9028 21.333 27.0033 21.2863 27.1262C21.2395 27.2491 21.2395 27.3836 21.2395 27.6527V37.717C21.2395 38.3916 21.2395 38.7289 21.03 38.9385C20.8204 39.1481 20.4831 39.1481 19.8085 39.1481H15.5907C14.9161 39.1481 14.5788 39.1481 14.3692 38.9385C14.1597 38.7289 14.1597 38.3916 14.1597 37.717V24.5796C14.1597 24.3045 14.1597 24.167 14.2083 24.0418C14.257 23.9167 14.3499 23.8153 14.5358 23.6126L16.4391 21.5362L17.9147 19.8949C17.915 19.8945 17.915 19.8939 17.9147 19.8935C17.9143 19.8931 17.9143 19.8925 17.9147 19.8921L18.0125 19.786L27.5713 9.1534C27.7813 8.91982 27.8863 8.80303 28.0253 8.74105C28.1644 8.67908 28.3214 8.67908 28.6355 8.67908L34.4411 8.67908C35.8124 8.67908 36.498 8.67908 36.6877 9.10156C36.8774 9.52405 36.4217 10.0364 35.5104 11.0611L28.3976 19.0593C27.9916 19.5159 27.7886 19.7442 27.7899 20.0183C27.7912 20.2923 27.9963 20.5187 28.4067 20.9714L35.3739 28.6583C36.3051 29.6856 36.7707 30.1992 36.582 30.6248C36.3934 31.0504 35.7001 31.0504 34.3136 31.0504L28.9416 31.0504C28.6349 31.0504 28.4816 31.0504 28.3452 30.991C28.2087 30.9317 28.1041 30.8196 27.895 30.5953L23.9726 26.3894C23.4716 25.8522 23.2212 25.5836 22.905 25.5874C22.5889 25.5911 22.3448 25.8656 21.8567 26.4145L21.6012 26.7017Z" fill="url(#paint1_linear_123_98)"/>
</g>
</g>
<defs>
<linearGradient id="paint0_linear_123_98" x1="10.6198" y1="0.852173" x2="10.6198" y2="31.4243" gradientUnits="userSpaceOnUse">
<stop stop-color="#00FF89"/>
<stop offset="1" stop-color="#007B42"/>
</linearGradient>
<linearGradient id="paint1_linear_123_98" x1="25.4448" y1="8.67908" x2="25.4448" y2="39.1479" gradientUnits="userSpaceOnUse">
<stop stop-color="#00FF89"/>
<stop offset="1" stop-color="#007B42"/>
</linearGradient>
</defs>
</svg>
