<svg width="20" height="20" viewBox="0 0 20 20" fill="none" xmlns="http://www.w3.org/2000/svg">
<g id="angle-small-left (1) 1">
<path id="Vector" d="M11.3078 10.472C11.3699 10.4101 11.4192 10.3365 11.4528 10.2555C11.4864 10.1745 11.5037 10.0877 11.5037 10C11.5037 9.91231 11.4864 9.82549 11.4528 9.74449C11.4192 9.6635 11.3699 9.58993 11.3078 9.52801L5.19326 3.41478C4.81807 3.03977 4.60722 2.53108 4.6071 2.00061C4.60697 1.47014 4.81758 0.961346 5.19259 0.586159C5.5676 0.210972 6.07629 0.000125082 6.60676 5.56339e-08C7.13723 -0.00012497 7.64602 0.210483 8.02121 0.585493L14.1358 6.70006C15.0094 7.57609 15.5 8.7628 15.5 10C15.5 11.2372 15.0094 12.4239 14.1358 13.2999L8.02121 19.4145C7.64602 19.7895 7.13723 20.0001 6.60676 20C6.07629 19.9999 5.5676 19.789 5.19259 19.4138C4.81758 19.0387 4.60697 18.5299 4.6071 17.9994C4.60722 17.4689 4.81807 16.9602 5.19326 16.5852L11.3078 10.472Z" fill="black"/>
</g>
</svg>
