<svg width="20" height="20" viewBox="0 0 20 20" fill="none" xmlns="http://www.w3.org/2000/svg">
<g id="angle-small-left (1) 1">
<path id="Vector" d="M8.69218 10.472C8.63009 10.4101 8.58084 10.3365 8.54723 10.2555C8.51362 10.1745 8.49632 10.0877 8.49632 10C8.49632 9.91231 8.51362 9.82549 8.54723 9.74449C8.58084 9.6635 8.63009 9.58993 8.69218 9.52801L14.8067 3.41478C15.1819 3.03977 15.3928 2.53108 15.3929 2.00061C15.393 1.47014 15.1824 0.961346 14.8074 0.586159C14.4324 0.210972 13.9237 0.000125082 13.3932 5.56339e-08C12.8628 -0.00012497 12.354 0.210483 11.9788 0.585493L5.86423 6.70006C4.9906 7.57609 4.5 8.7628 4.5 10C4.5 11.2372 4.9906 12.4239 5.86423 13.2999L11.9788 19.4145C12.354 19.7895 12.8628 20.0001 13.3932 20C13.9237 19.9999 14.4324 19.789 14.8074 19.4138C15.1824 19.0387 15.393 18.5299 15.3929 17.9994C15.3928 17.4689 15.1819 16.9602 14.8067 16.5852L8.69218 10.472Z" fill="black"/>
</g>
</svg>
