<svg xmlns="http://www.w3.org/2000/svg" width="15" height="14" viewBox="0 0 20 14" fill="none">
  <path d="M8.22817 6.39851C8.6432 6.18974 8.95698 5.95722 9.17199 5.70595C9.55452 5.25341 9.74329 4.65336 9.74329 3.90955C9.74329 3.18574 9.55452 2.56694 9.17699 2.04815C8.54694 1.20308 7.48061 0.770549 5.97298 0.748047H0V12.9403H5.5692C6.19675 12.9403 6.77805 12.8865 7.31559 12.7765C7.85314 12.6653 8.31817 12.4615 8.71196 12.164C9.06198 11.9052 9.35451 11.5839 9.58703 11.2051C9.95456 10.6326 10.1383 9.9838 10.1383 9.26124C10.1383 8.56118 9.97706 7.96488 9.65703 7.47484C9.33326 6.9848 8.85822 6.62602 8.22817 6.39851ZM2.46395 2.86572H5.15417C5.74547 2.86572 6.23301 2.92947 6.61554 3.05573C7.05807 3.2395 7.27934 3.61328 7.27934 4.18333C7.27934 4.69462 7.11058 5.05215 6.7768 5.25341C6.44052 5.45468 6.00424 5.55594 5.46919 5.55594H2.46395V2.86572ZM6.71804 10.6101C6.42052 10.7539 6.00174 10.8251 5.46544 10.8251H2.46395V7.5736H5.5067C6.03674 7.57735 6.44927 7.64736 6.7443 7.77862C7.26934 8.01614 7.53061 8.45117 7.53061 9.08747C7.53061 9.83753 7.26059 10.3426 6.71804 10.6101ZM12.781 1.31684H18.0777V2.83447H12.781V1.31684ZM19.9179 7.30608C19.8079 6.59977 19.5653 5.97847 19.1878 5.44218C18.774 4.83463 18.249 4.38959 17.6102 4.10832C16.9739 3.8258 16.2576 3.68454 15.46 3.68579C14.1211 3.68579 13.0336 4.10457 12.1922 4.93589C11.3534 5.7697 10.9334 6.96855 10.9334 8.53118C10.9334 10.1976 11.3972 11.4014 12.3297 12.1402C13.2586 12.8803 14.3312 13.2491 15.5488 13.2491C17.0226 13.2491 18.169 12.8103 18.9878 11.9352C19.5116 11.3827 19.8079 10.8389 19.8729 10.3051H17.4327C17.2914 10.5688 17.1276 10.7751 16.9401 10.9251C16.6001 11.2001 16.1576 11.3377 15.615 11.3377C15.0987 11.3377 14.6612 11.2239 14.2962 10.9976C13.6936 10.6351 13.3786 10 13.3386 9.09622H19.9979C20.0079 8.31741 19.9829 7.71861 19.9179 7.30608ZM13.3986 7.53985C13.4861 6.95355 13.6986 6.48851 14.0361 6.14473C14.3737 5.80221 14.8512 5.62969 15.4625 5.62844C16.0263 5.62844 16.4976 5.78971 16.8814 6.11348C17.2601 6.43976 17.4739 6.91355 17.5177 7.53985H13.3986Z" fill="#007B42"/>
</svg>