<svg xmlns="http://www.w3.org/2000/svg" width="45" height="45" viewBox="0 0 45 45" fill="none">
  <g clip-path="url(#clip0_179_1040)">
    <path d="M40.8558 14.2311V28.7851C40.8558 34.4176 36.2744 38.999 30.6419 38.999H27.8544V43.0697C27.8544 44.3994 26.2517 45.0698 25.3046 44.1357L19.4882 38.3955C18.2718 37.1958 18.2718 35.2329 19.4882 34.0313L25.3046 28.2911C26.2517 27.357 27.8544 28.0274 27.8544 29.357V33.4278H30.6419C33.2009 33.4278 35.2846 31.3441 35.2846 28.7851V14.2311C33.0895 13.1874 31.5704 10.9496 31.5704 8.35714C31.5704 4.7674 34.4805 1.85735 38.0702 1.85735C41.66 1.85735 44.57 4.7674 44.57 8.35714C44.57 10.9496 43.0509 13.1874 40.8558 14.2311ZM25.1171 10.5021C26.313 9.32282 26.313 7.39146 25.1171 6.21221L19.2635 0.434823C18.3164 -0.49929 16.7137 0.171117 16.7137 1.50079V5.57152H13.9281C8.29559 5.57152 3.71417 10.1529 3.71417 15.7855V30.3394C1.51909 31.3831 0 33.6209 0 36.2134C0 39.8031 2.91005 42.7132 6.49979 42.7132C10.0895 42.7132 12.9996 39.8031 12.9996 36.2134C12.9996 33.6209 11.4805 31.3831 9.28542 30.3394V15.7855C9.28542 13.2264 11.3691 11.1428 13.9281 11.1428H16.7137V15.2135C16.7137 16.5432 18.3164 17.2136 19.2635 16.2795L25.1171 10.5021Z" fill="white"/>
  </g>
  <defs>
    <clipPath id="clip0_179_1040">
      <rect width="44.57" height="44.57" fill="white"/>
    </clipPath>
  </defs>
</svg>