<svg xmlns="http://www.w3.org/2000/svg" width="41" height="41" viewBox="0 0 41 41" fill="none">
  <g clip-path="url(#clip0_278_10)">
    <path d="M36.9955 13.3661V26.3642C36.9955 31.3946 32.9038 35.4863 27.8734 35.4863H25.3839V39.1219C25.3839 40.3094 23.9525 40.9082 23.1067 40.0739L17.912 34.9473C16.8257 33.8758 16.8257 32.1227 17.912 31.0497L23.1067 25.923C23.9525 25.0888 25.3839 25.6875 25.3839 26.875V30.5106H27.8734C30.1589 30.5106 32.0198 28.6497 32.0198 26.3642V13.3661C30.0594 12.4339 28.7027 10.4354 28.7027 8.12002C28.7027 4.91402 31.3016 2.31505 34.5076 2.31505C37.7136 2.31505 40.3126 4.91402 40.3126 8.12002C40.3126 10.4354 38.9559 12.4339 36.9955 13.3661ZM22.9391 10.0357C24.0073 8.98247 24.0073 7.25757 22.9391 6.20438L17.7114 1.04459C16.8655 0.210334 15.4341 0.809075 15.4341 1.99661V5.63218H12.9463C7.91588 5.63218 3.82421 9.72385 3.82421 14.7543V27.7524C1.86378 28.6845 0.50708 30.6831 0.50708 32.9985C0.50708 36.2045 3.10605 38.8034 6.31205 38.8034C9.51805 38.8034 12.117 36.2045 12.117 32.9985C12.117 30.6831 10.7603 28.6845 8.7999 27.7524V14.7543C8.7999 12.4688 10.6608 10.6079 12.9463 10.6079H15.4341V14.2434C15.4341 15.431 16.8655 16.0297 17.7114 15.1954L22.9391 10.0357Z" fill="#007B42"/>
  </g>
  <defs>
    <clipPath id="clip0_278_10">
      <rect width="39.8055" height="39.8055" fill="white" transform="translate(0.50708 0.65625)"/>
    </clipPath>
  </defs>
</svg>