<svg xmlns="http://www.w3.org/2000/svg" width="46" height="46" viewBox="0 0 46 46" fill="none">
  <g clip-path="url(#clip0_185_1519)">
    <path d="M42.3573 34H39.5715V11.7143H42.3573C43.895 11.7143 45.143 10.4663 45.143 8.92855C45.143 7.39084 43.895 6.14284 42.3573 6.14284H39.5715V3.35713C39.5715 1.81941 38.3235 0.571411 36.7858 0.571411C35.2481 0.571411 34.0001 1.81941 34.0001 3.35713V6.14284H11.7144V3.35713C11.7144 1.81941 10.4682 0.571411 8.92868 0.571411C7.3891 0.571411 6.14296 1.81941 6.14296 3.35713V6.14284H3.35725C1.81768 6.14284 0.571533 7.39084 0.571533 8.92855C0.571533 10.4663 1.81768 11.7143 3.35725 11.7143H6.14296V34H3.35725C1.81768 34 0.571533 35.248 0.571533 36.7857C0.571533 38.3234 1.81768 39.5714 3.35725 39.5714H6.14296V42.3571C6.14296 43.8948 7.3891 45.1428 8.92868 45.1428C10.4682 45.1428 11.7144 43.8948 11.7144 42.3571V39.5714H34.0001V42.3571C34.0001 43.8948 35.2481 45.1428 36.7858 45.1428C38.3235 45.1428 39.5715 43.8948 39.5715 42.3571V39.5714H42.3573C43.895 39.5714 45.143 38.3234 45.143 36.7857C45.143 35.248 43.895 34 42.3573 34ZM11.7144 34V11.7143H34.0001V34H11.7144Z" fill="white"/>
  </g>
  <defs>
    <clipPath id="clip0_185_1519">
      <rect width="44.5714" height="44.5714" fill="white" transform="translate(0.571533 0.571411)"/>
    </clipPath>
  </defs>
</svg>