<svg xmlns="http://www.w3.org/2000/svg" width="41" height="40" viewBox="0 0 41 40" fill="none">
  <g clip-path="url(#clip0_278_697)">
    <path d="M38.1231 29.9581H35.6352V10.0554H38.1231C39.4964 10.0554 40.6109 8.94083 40.6109 7.56754C40.6109 6.19425 39.4964 5.07969 38.1231 5.07969H35.6352V2.59185C35.6352 1.21856 34.5207 0.104004 33.1474 0.104004C31.7741 0.104004 30.6596 1.21856 30.6596 2.59185V5.07969H10.7568V2.59185C10.7568 1.21856 9.6439 0.104004 8.26895 0.104004C6.894 0.104004 5.78111 1.21856 5.78111 2.59185V5.07969H3.29326C1.91832 5.07969 0.80542 6.19425 0.80542 7.56754C0.80542 8.94083 1.91832 10.0554 3.29326 10.0554H5.78111V29.9581H3.29326C1.91832 29.9581 0.80542 31.0727 0.80542 32.446C0.80542 33.8193 1.91832 34.9338 3.29326 34.9338H5.78111V37.4217C5.78111 38.795 6.894 39.9095 8.26895 39.9095C9.6439 39.9095 10.7568 38.795 10.7568 37.4217V34.9338H30.6596V37.4217C30.6596 38.795 31.7741 39.9095 33.1474 39.9095C34.5207 39.9095 35.6352 38.795 35.6352 37.4217V34.9338H38.1231C39.4964 34.9338 40.6109 33.8193 40.6109 32.446C40.6109 31.0727 39.4964 29.9581 38.1231 29.9581ZM10.7568 29.9581V10.0554H30.6596V29.9581H10.7568Z" fill="#007B42"/>
  </g>
  <defs>
    <clipPath id="clip0_278_697">
      <rect width="39.8055" height="39.8055" fill="white" transform="translate(0.80542 0.104004)"/>
    </clipPath>
  </defs>
</svg>