<svg xmlns="http://www.w3.org/2000/svg" width="20" height="21" viewBox="0 0 20 21" fill="none">
  <path d="M20 20.748V13.423C20 9.82305 19.225 7.07305 15.025 7.07305C13 7.07305 11.65 8.17305 11.1 9.22305H11.05V7.39805H7.075V20.748H11.225V14.123C11.225 12.373 11.55 10.698 13.7 10.698C15.825 10.698 15.85 12.673 15.85 14.223V20.723H20V20.748ZM0.325 7.39805H4.475V20.748H0.325V7.39805ZM2.4 0.748047C1.075 0.748047 0 1.82305 0 3.14805C0 4.47305 1.075 5.57305 2.4 5.57305C3.725 5.57305 4.8 4.47305 4.8 3.14805C4.8 1.82305 3.725 0.748047 2.4 0.748047Z" fill="#007B42"/>
</svg>