<svg xmlns="http://www.w3.org/2000/svg" width="46" height="46" viewBox="0 0 46 46" fill="none">
  <g clip-path="url(#clip0_179_1368)">
    <path d="M9.60283 5.87361L12.4814 5.05275L13.3023 2.17418C13.4345 1.71228 13.7135 1.306 14.0972 1.01677C14.4808 0.727548 14.9482 0.571106 15.4287 0.571106C15.9091 0.571106 16.3765 0.727548 16.7602 1.01677C17.1438 1.306 17.4229 1.71228 17.5551 2.17418L18.376 5.05275L21.2545 5.87361C21.7164 6.00585 22.1227 6.28489 22.4119 6.66854C22.7012 7.05219 22.8576 7.51958 22.8576 8.00004C22.8576 8.4805 22.7012 8.94789 22.4119 9.33154C22.1227 9.71519 21.7164 9.99423 21.2545 10.1265L18.376 10.9473L17.5551 13.8259C17.4229 14.2878 17.1438 14.6941 16.7602 14.9833C16.3765 15.2725 15.9091 15.429 15.4287 15.429C14.9482 15.429 14.4808 15.2725 14.0972 14.9833C13.7135 14.6941 13.4345 14.2878 13.3023 13.8259L12.4814 10.9473L9.60283 10.1265C9.14093 9.99423 8.73464 9.71519 8.44542 9.33154C8.15619 8.94789 7.99975 8.4805 7.99975 8.00004C7.99975 7.51958 8.15619 7.05219 8.44542 6.66854C8.73464 6.28489 9.14093 6.00585 9.60283 5.87361ZM43.5403 28.1593L40.6617 27.3385L39.8408 24.4599C39.7086 23.998 39.4295 23.5917 39.0459 23.3025C38.6622 23.0133 38.1949 22.8568 37.7144 22.8568C37.2339 22.8568 36.7665 23.0133 36.3829 23.3025C35.9992 23.5917 35.7202 23.998 35.588 24.4599L34.7671 27.3385L31.8885 28.1593C31.4266 28.2916 31.0204 28.5706 30.7311 28.9543C30.4419 29.3379 30.2855 29.8053 30.2855 30.2858C30.2855 30.7662 30.4419 31.2336 30.7311 31.6173C31.0204 32.0009 31.4266 32.2799 31.8885 32.4122L34.7671 33.233L35.588 36.1116C35.7202 36.5735 35.9992 36.9798 36.3829 37.269C36.7665 37.5582 37.2339 37.7147 37.7144 37.7147C38.1949 37.7147 38.6622 37.5582 39.0459 37.269C39.4295 36.9798 39.7086 36.5735 39.8408 36.1116L40.6617 33.233L43.5403 32.4122C44.0022 32.2799 44.4084 32.0009 44.6977 31.6173C44.9869 31.2336 45.1433 30.7662 45.1433 30.2858C45.1433 29.8053 44.9869 29.3379 44.6977 28.9543C44.4084 28.5706 44.0022 28.2916 43.5403 28.1593ZM33.5451 8.92861L36.0634 9.64733L36.7858 12.1675C36.9034 12.569 37.1479 12.9215 37.4827 13.1723C37.8175 13.4232 38.2246 13.5587 38.643 13.5587C39.0613 13.5587 39.4684 13.4232 39.8032 13.1723C40.138 12.9215 40.3825 12.569 40.5001 12.1675L41.2188 9.65104L43.7408 8.92861C44.1423 8.81103 44.4949 8.56652 44.7457 8.23171C44.9965 7.89689 45.1321 7.48981 45.1321 7.07147C45.1321 6.65312 44.9965 6.24604 44.7457 5.91123C44.4949 5.57642 44.1423 5.3319 43.7408 5.21433L41.2225 4.49561L40.5001 1.97361C40.3825 1.57213 40.138 1.21956 39.8032 0.968735C39.4684 0.717911 39.0613 0.582342 38.643 0.582342C38.2246 0.582342 37.8175 0.717911 37.4827 0.968735C37.1479 1.21956 36.9034 1.57213 36.7858 1.97361L36.0671 4.4919L33.5451 5.21433C33.1436 5.3319 32.7911 5.57642 32.5402 5.91123C32.2894 6.24604 32.1538 6.65312 32.1538 7.07147C32.1538 7.48981 32.2894 7.89689 32.5402 8.23171C32.7911 8.56652 33.1436 8.81103 33.5451 8.92861ZM32.4308 24.0606L12.9884 43.0332C11.619 44.3887 9.76874 45.1471 7.84192 45.1426C5.91509 45.138 4.0684 44.371 2.7054 43.009C1.34066 41.6411 0.574219 39.7877 0.574219 37.8555C0.574219 35.9232 1.34066 34.0698 2.7054 32.7019L22.25 13.6328C23.2785 12.6282 24.5812 11.9504 25.9941 11.6847C27.407 11.419 28.8669 11.5773 30.1901 12.1396C31.5132 12.7019 32.6404 13.6431 33.4298 14.8447C34.2191 16.0463 34.6353 17.4545 34.626 18.8922C34.6232 19.8574 34.4272 20.8123 34.0495 21.7006C33.6719 22.5889 33.1202 23.3926 32.4271 24.0643L32.4308 24.0606ZM20.9537 27.4759L18.5227 25.0523L6.62026 36.665C6.30772 36.9885 6.13521 37.4222 6.14008 37.8719C6.14494 38.3217 6.3268 38.7515 6.64626 39.0682C6.97238 39.3812 7.40692 39.556 7.85897 39.556C8.31102 39.556 8.74556 39.3812 9.07168 39.0682L20.9537 27.4759ZM29.0583 18.855C29.0602 18.5167 28.9621 18.1852 28.7762 17.9025C28.5904 17.6197 28.3251 17.3982 28.0136 17.2658C27.7022 17.1334 27.3586 17.0961 27.026 17.1584C26.6934 17.2208 26.3867 17.3801 26.1444 17.6163L22.5137 21.1579L24.941 23.5852L28.5383 20.0715C28.7003 19.9136 28.8294 19.7251 28.918 19.5169C29.0067 19.3087 29.0531 19.085 29.0545 18.8588L29.0583 18.855Z" fill="white"/>
  </g>
  <defs>
    <clipPath id="clip0_179_1368">
      <rect width="44.5714" height="44.5714" fill="white" transform="translate(0.571533 0.571411)"/>
    </clipPath>
  </defs>
</svg>