<svg xmlns="http://www.w3.org/2000/svg" width="41" height="41" viewBox="0 0 41 41" fill="none">
  <g clip-path="url(#clip0_278_597)">
    <path d="M8.57272 5.5407L11.1435 4.80761L11.8766 2.23684C11.9947 1.82433 12.2439 1.46149 12.5865 1.20319C12.9291 0.94489 13.3466 0.805176 13.7756 0.805176C14.2047 0.805176 14.6221 0.94489 14.9648 1.20319C15.3074 1.46149 15.5566 1.82433 15.6747 2.23684L16.4078 4.80761L18.9785 5.5407C19.3911 5.6588 19.7539 5.908 20.0122 6.25063C20.2705 6.59325 20.4102 7.01067 20.4102 7.43975C20.4102 7.86883 20.2705 8.28625 20.0122 8.62888C19.7539 8.9715 19.3911 9.22071 18.9785 9.33881L16.4078 10.0719L15.6747 12.6427C15.5566 13.0552 15.3074 13.418 14.9648 13.6763C14.6221 13.9346 14.2047 14.0743 13.7756 14.0743C13.3466 14.0743 12.9291 13.9346 12.5865 13.6763C12.2439 13.418 11.9947 13.0552 11.8766 12.6427L11.1435 10.0719L8.57272 9.33881C8.16021 9.22071 7.79737 8.9715 7.53907 8.62888C7.28077 8.28625 7.14106 7.86883 7.14106 7.43975C7.14106 7.01067 7.28077 6.59325 7.53907 6.25063C7.79737 5.908 8.16021 5.6588 8.57272 5.5407ZM38.8813 25.4435L36.3105 24.7104L35.5774 22.1396C35.4593 21.7271 35.2101 21.3642 34.8675 21.1059C34.5249 20.8476 34.1075 20.7079 33.6784 20.7079C33.2493 20.7079 32.8319 20.8476 32.4893 21.1059C32.1466 21.3642 31.8974 21.7271 31.7793 22.1396L31.0462 24.7104L28.4755 25.4435C28.063 25.5615 27.7001 25.8108 27.4418 26.1534C27.1835 26.496 27.0438 26.9134 27.0438 27.3425C27.0438 27.7716 27.1835 28.189 27.4418 28.5316C27.7001 28.8743 28.063 29.1235 28.4755 29.2416L31.0462 29.9746L31.7793 32.5454C31.8974 32.9579 32.1466 33.3208 32.4893 33.5791C32.8319 33.8374 33.2493 33.9771 33.6784 33.9771C34.1075 33.9771 34.5249 33.8374 34.8675 33.5791C35.2101 33.3208 35.4593 32.9579 35.5774 32.5454L36.3105 29.9746L38.8813 29.2416C39.2938 29.1235 39.6566 28.8743 39.9149 28.5316C40.1732 28.189 40.313 27.7716 40.313 27.3425C40.313 26.9134 40.1732 26.496 39.9149 26.1534C39.6566 25.8108 39.2938 25.5615 38.8813 25.4435ZM29.9549 8.26903L32.2039 8.9109L32.8491 11.1616C32.9541 11.5201 33.1725 11.835 33.4715 12.059C33.7705 12.283 34.1341 12.4041 34.5077 12.4041C34.8813 12.4041 35.2448 12.283 35.5438 12.059C35.8429 11.835 36.0612 11.5201 36.1662 11.1616L36.8081 8.91421L39.0604 8.26903C39.419 8.16403 39.7338 7.94566 39.9579 7.64665C40.1819 7.34763 40.3029 6.98408 40.3029 6.61047C40.3029 6.23686 40.1819 5.87331 39.9579 5.57429C39.7338 5.27528 39.419 5.05691 39.0604 4.95191L36.8114 4.31004L36.1662 2.05771C36.0612 1.69916 35.8429 1.38429 35.5438 1.16029C35.2448 0.936284 34.8813 0.81521 34.5077 0.81521C34.1341 0.81521 33.7705 0.936284 33.4715 1.16029C33.1725 1.38429 32.9541 1.69916 32.8491 2.05771L32.2072 4.30673L29.9549 4.95191C29.5964 5.05691 29.2815 5.27528 29.0575 5.57429C28.8335 5.87331 28.7124 6.23686 28.7124 6.61047C28.7124 6.98408 28.8335 7.34763 29.0575 7.64665C29.2815 7.94566 29.5964 8.16403 29.9549 8.26903ZM28.9598 21.783L11.5963 38.7269C10.3733 39.9375 8.7209 40.6148 7.0001 40.6107C5.27931 40.6067 3.63008 39.9216 2.41282 38.7053C1.19401 37.4837 0.509521 35.8285 0.509521 34.1028C0.509521 32.3771 1.19401 30.7219 2.41282 29.5003L19.8675 12.4702C20.7861 11.5731 21.9495 10.9677 23.2113 10.7305C24.4731 10.4932 25.777 10.6345 26.9586 11.1367C28.1403 11.6388 29.147 12.4794 29.8519 13.5525C30.5568 14.6256 30.9285 15.8833 30.9202 17.1672C30.9177 18.0292 30.7427 18.882 30.4054 19.6753C30.0681 20.4686 29.5755 21.1864 28.9565 21.7863L28.9598 21.783ZM18.7099 24.8331L16.5388 22.6687L5.90907 33.0397C5.62996 33.3286 5.47589 33.7158 5.48023 34.1175C5.48458 34.5192 5.64699 34.903 5.93229 35.1858C6.22355 35.4654 6.61162 35.6215 7.01533 35.6215C7.41904 35.6215 7.80712 35.4654 8.09837 35.1858L18.7099 24.8331ZM25.9478 17.1341C25.9496 16.8319 25.862 16.5359 25.696 16.2833C25.53 16.0308 25.293 15.833 25.0149 15.7148C24.7368 15.5965 24.4299 15.5632 24.1329 15.6189C23.8359 15.6746 23.5619 15.8168 23.3455 16.0278L20.1031 19.1907L22.2708 21.3584L25.4834 18.2204C25.6282 18.0794 25.7435 17.9111 25.8226 17.7251C25.9018 17.5392 25.9432 17.3394 25.9445 17.1374L25.9478 17.1341Z" fill="#007B42"/>
  </g>
  <defs>
    <clipPath id="clip0_278_597">
      <rect width="39.8055" height="39.8055" fill="white" transform="translate(0.50708 0.805664)"/>
    </clipPath>
  </defs>
</svg>