<svg xmlns="http://www.w3.org/2000/svg" width="46" height="46" viewBox="0 0 46 46" fill="none">
  <g clip-path="url(#clip0_170_1104)">
    <path d="M27.5 0.571411H18.2143C12.5816 0.571411 8 5.15298 8 10.7857V34.9286C8 40.5613 12.5816 45.1428 18.2143 45.1428H27.5C33.1327 45.1428 37.7143 40.5613 37.7143 34.9286V10.7857C37.7143 5.15298 33.1327 0.571411 27.5 0.571411ZM32.1429 34.9286C32.1429 37.4877 30.0591 39.5714 27.5 39.5714H18.2143C15.6551 39.5714 13.5714 37.4877 13.5714 34.9286V10.7857C13.5714 8.78184 14.8491 7.06955 16.632 6.42141L17.581 8.31755C18.0527 9.26098 19.0166 9.85713 20.0733 9.85713H25.6447C26.6996 9.85713 27.6634 9.26098 28.137 8.31755L29.086 6.42141C30.8689 7.06955 32.1466 8.78184 32.1466 10.7857V34.9286H32.1429ZM24.7143 35.8571H21C19.9749 35.8571 19.1429 35.0251 19.1429 34C19.1429 32.9748 19.9749 32.1428 21 32.1428H24.7143C25.7394 32.1428 26.5714 32.9748 26.5714 34C26.5714 35.0251 25.7394 35.8571 24.7143 35.8571Z" fill="white"/>
  </g>
  <defs>
    <clipPath id="clip0_170_1104">
      <rect width="44.5714" height="44.5714" fill="white" transform="translate(0.571533 0.571411)"/>
    </clipPath>
  </defs>
</svg>