 <svg xmlns="http://www.w3.org/2000/svg" width="70" height="70" viewBox="0 0 70 70" fill="none">
                            <path d="M68.9043 51.2762L58.3451 26.581C56.4222 22.0603 53.5547 19.4964 50.2823 19.3277C47.0438 19.159 43.9064 21.4193 41.5111 25.7376L35.1014 37.2418C33.752 39.6708 31.8291 41.1215 29.7375 41.2902C27.6122 41.4926 25.4868 40.3793 23.7663 38.1864L23.0241 37.2418C20.6289 34.2392 17.6602 32.7886 14.624 33.0922C11.5878 33.3958 8.99022 35.4875 7.26972 38.8949L1.43349 50.534C-0.6581 54.7511 -0.455688 59.6429 2.007 63.6238C4.46968 67.6047 8.75408 70 13.4433 70H56.4897C61.0102 70 65.2271 67.7396 67.7235 63.9612C70.2874 60.1827 70.6923 55.4258 68.9043 51.2762ZM18.1359 22.8059C21.16 22.8059 24.0603 21.6045 26.1987 19.4661C28.3371 17.3276 29.5385 14.4272 29.5385 11.403C29.5385 8.37871 28.3371 5.47832 26.1987 3.33985C24.0603 1.20138 21.16 0 18.1359 0C15.1117 0 12.2115 1.20138 10.0731 3.33985C7.93466 5.47832 6.73332 8.37871 6.73332 11.403C6.73332 14.4272 7.93466 17.3276 10.0731 19.4661C12.2115 21.6045 15.1117 22.8059 18.1359 22.8059Z" fill="#CEEBE5" />
                        </svg>