<svg xmlns="http://www.w3.org/2000/svg" width="41" height="42" viewBox="0 0 41 42" fill="none">
  <path d="M16.0515 28.8994L18.9727 31.8271" stroke="#007B42" stroke-width="4" stroke-miterlimit="10" stroke-linecap="round" stroke-linejoin="round"/>
  <path d="M14.3716 31.8633C16.8931 31.8633 18.9372 29.8146 18.9372 27.2873C18.9372 24.7601 16.8931 22.7114 14.3716 22.7114C11.85 22.7114 9.80591 24.7601 9.80591 27.2873C9.80591 29.8146 11.85 31.8633 14.3716 31.8633Z" stroke="#007B42" stroke-width="4" stroke-miterlimit="10" stroke-linecap="round" stroke-linejoin="round"/>
  <path d="M14.3895 15.5288C7.90977 15.5288 2.65692 20.7934 2.65692 27.2876C2.65692 29.2377 3.13054 31.0769 3.96887 32.6959L2.06201 37.4806L7.62771 36.8983C9.53892 38.2515 11.8715 39.0464 14.3894 39.0464C20.8692 39.0464 26.122 33.7818 26.122 27.2876C26.122 20.7934 20.8692 15.5288 14.3895 15.5288Z" stroke="#007B42" stroke-width="4" stroke-miterlimit="10" stroke-linecap="round" stroke-linejoin="round"/>
  <path d="M30.5452 19.4764L26.9039 9.98044C26.8338 9.80878 26.5913 9.80855 26.5209 9.98006L23.1233 19.0033M29.8853 17.9281H23.6311M26.2179 26.1844C26.2887 26.1856 26.3595 26.1863 26.4306 26.1863C28.9485 26.1863 31.2812 25.3912 33.1923 24.0382L38.758 24.6205L37.0002 20.2096" stroke="#007B42" stroke-width="4" stroke-miterlimit="10" stroke-linecap="round" stroke-linejoin="round"/>
  <path d="M37.9504 12.1885C36.9071 6.76526 32.146 2.66895 26.4304 2.66895C19.9506 2.66895 14.6978 7.93354 14.6978 14.4277C14.6978 14.7788 14.7131 15.1262 14.7432 15.4694" stroke="#007B42" stroke-width="4" stroke-miterlimit="10" stroke-linecap="round" stroke-linejoin="round"/>
</svg>