<svg xmlns="http://www.w3.org/2000/svg" width="21" height="21" viewBox="0 0 21 21" fill="none">
  <path d="M19.3388 12.4177C19.3212 12.3859 19.3323 12.4529 19.3388 12.4177C19.4421 11.8543 19.4965 11.2778 19.4965 10.7015C19.4965 9.4235 19.2463 8.18385 18.752 7.01657C18.275 5.88922 17.5927 4.87678 16.7228 4.0075C15.8543 3.13809 14.8411 2.45591 13.7142 1.97905C12.5475 1.48529 11.3077 1.23506 10.0298 1.23506C9.42751 1.23506 8.82424 1.29161 8.23714 1.40441C8.23592 1.40466 8.23276 1.40504 8.23276 1.40504C7.42722 0.976723 6.52144 0.748047 5.60445 0.748047C4.10743 0.748047 2.69998 1.33101 1.64152 2.38982C0.583187 3.44831 0 4.85586 0 6.35275C0 7.30561 0.245216 8.2423 0.705075 9.06986C0.611819 9.60619 0.562513 10.1543 0.562513 10.7015C0.562513 11.9797 0.812741 13.2193 1.30712 14.3866C1.78336 15.5145 2.46591 16.5262 3.33507 17.3956C4.20498 18.2649 5.21667 18.9482 6.34477 19.4238C7.51164 19.9185 8.75182 20.1689 10.0297 20.1689C10.586 20.1689 11.1434 20.1181 11.6877 20.0216C12.5287 20.4976 13.4785 20.7479 14.4449 20.748C15.9415 20.748 17.3484 20.1662 18.4069 19.1069C19.4657 18.049 20.0483 16.6412 20.0483 15.1443C20.0483 14.1883 19.8019 13.2485 19.3388 12.4177ZM10.0675 16.4993C6.70429 16.4993 5.19954 14.8459 5.19954 13.6065C5.19954 12.9711 5.66879 12.5255 6.31551 12.5255C7.75492 12.5255 7.38217 14.5921 10.0675 14.5921C11.4423 14.5921 12.2013 13.8457 12.2013 13.0819C12.2013 12.6224 11.9747 12.1131 11.0694 11.89L8.07807 11.1432C5.66882 10.5391 5.23174 9.23664 5.23174 8.01237C5.23174 5.4705 7.62507 4.51616 9.87255 4.51616C11.943 4.51616 14.3836 5.66039 14.3836 7.18532C14.3836 7.83877 13.8178 8.21868 13.1713 8.21868C11.943 8.21868 12.1688 6.51855 9.69462 6.51855C8.46698 6.51855 7.78684 7.07458 7.78684 7.87006C7.78684 8.66423 8.75658 8.9179 9.59845 9.10961L11.8127 9.60117C14.2381 10.1415 14.8529 11.5575 14.8529 12.8913C14.8532 14.9569 13.2676 16.4993 10.0675 16.4993Z" fill="#007B42"/>
</svg>