<svg xmlns="http://www.w3.org/2000/svg" width="20" height="19" viewBox="0 0 20 19" fill="none">
  <path d="M19.9117 3.72612C19.8537 3.6318 19.7706 3.55548 19.6718 3.5057C19.5729 3.45592 19.4621 3.43466 19.3518 3.44429L18.3545 3.53116L19.3078 1.60955C19.3632 1.49794 19.3822 1.37177 19.3622 1.24878C19.3422 1.12579 19.2842 1.01215 19.1963 0.923816C19.1085 0.835481 18.9951 0.77689 18.8722 0.75627C18.7493 0.73565 18.6231 0.754037 18.5112 0.808849L15.9883 2.04444C14.4295 1.22155 12.4821 1.4658 11.1421 2.68647C10.0238 3.70522 9.43593 5.27191 9.54554 6.83426C6.62252 6.54129 4.1483 4.8682 2.68525 2.16483C2.63748 2.07659 2.56823 2.00182 2.48389 1.94745C2.39955 1.89308 2.30287 1.86086 2.20277 1.85379C2.10268 1.84671 2.00242 1.865 1.91127 1.90696C1.82013 1.94893 1.74104 2.01321 1.68134 2.09385C0.773912 3.31972 0.71024 5.0005 1.42161 6.38328C1.22552 6.33375 1.01684 6.26672 0.785436 6.18941C0.687944 6.15681 0.583681 6.14997 0.482765 6.16955C0.38185 6.18912 0.287708 6.23445 0.209477 6.30114C0.131246 6.36783 0.0715819 6.45361 0.0362756 6.55015C0.000969312 6.64669 -0.00878041 6.75073 0.00797264 6.85215C0.289458 8.55872 1.28462 9.87028 2.85665 10.6466C2.65198 10.7179 2.44289 10.7758 2.23071 10.82C2.12707 10.8416 2.03105 10.8904 1.9525 10.9614C1.87395 11.0324 1.81571 11.123 1.78376 11.2239C1.75181 11.3248 1.7473 11.4324 1.7707 11.5357C1.79409 11.6389 1.84455 11.7341 1.91688 11.8114C3.04896 13.0215 4.68428 13.617 5.84584 13.9028C4.52513 14.937 3.09947 15.1101 1.02782 15.039C0.788014 15.0317 0.567076 15.1668 0.466255 15.3842C0.416956 15.4905 0.40009 15.6091 0.417764 15.7249C0.435438 15.8408 0.486869 15.9489 0.56563 16.0358C1.42923 16.9877 4.57556 18.061 7.88307 18.1415C8.01389 18.1447 8.14733 18.1464 8.28358 18.1464C10.6059 18.1464 13.6751 17.6485 15.8781 15.4455C17.5456 13.7781 18.5885 11.8585 18.9779 9.74032C19.2925 8.0295 19.0937 6.65949 18.9982 6.00105C18.9911 5.95265 18.9837 5.90129 18.9776 5.85636L19.9104 4.35284C19.9688 4.25879 19.9998 4.15035 20 4.03966C20.0002 3.92898 19.9696 3.82041 19.9117 3.72612Z" fill="#007B42"/>
</svg>