<svg xmlns="http://www.w3.org/2000/svg" width="62" height="47" viewBox="0 0 62 47" fill="none">
  <path fill-rule="evenodd" clip-rule="evenodd" d="M10.3333 0H20.6667C22.037 0 23.3511 0.544343 24.3201 1.51328C25.289 2.48222 25.8333 3.79638 25.8333 5.16667V25.8333C25.8272 31.3126 23.6478 36.5657 19.7734 40.4401C15.899 44.3145 10.6459 46.4938 5.16667 46.5C4.13895 46.5 3.15333 46.0917 2.42663 45.365C1.69992 44.6383 1.29167 43.6527 1.29167 42.625C1.29167 41.5973 1.69992 40.6117 2.42663 39.885C3.15333 39.1583 4.13895 38.75 5.16667 38.75C8.59112 38.7459 11.8741 37.3837 14.2956 34.9623C16.7171 32.5408 18.0792 29.2578 18.0833 25.8333H5.16667C3.79638 25.8333 2.48222 25.289 1.51328 24.32C0.544344 23.3511 0 22.037 0 20.6667V10.3333C0 7.59276 1.08869 4.96444 3.02656 3.02656C4.96444 1.08869 7.59276 0 10.3333 0ZM46.5 0H56.8333C58.2036 0 59.5178 0.544343 60.4867 1.51328C61.4556 2.48222 62 3.79638 62 5.16667V25.8333C61.9938 31.3126 59.8145 36.5657 55.9401 40.4401C52.0656 44.3145 46.8126 46.4938 41.3333 46.5C40.3056 46.5 39.32 46.0917 38.5933 45.365C37.8666 44.6383 37.4583 43.6527 37.4583 42.625C37.4583 41.5973 37.8666 40.6117 38.5933 39.885C39.32 39.1583 40.3056 38.75 41.3333 38.75C44.7578 38.7459 48.0408 37.3837 50.4622 34.9623C52.8837 32.5408 54.2459 29.2578 54.25 25.8333H41.3333C39.963 25.8333 38.6489 25.289 37.6799 24.32C36.711 23.3511 36.1666 22.037 36.1666 20.6667V10.3333C36.1666 7.59276 37.2553 4.96444 39.1932 3.02656C41.1311 1.08869 43.7594 0 46.5 0Z" fill="#007B42"/>
</svg>