<svg xmlns="http://www.w3.org/2000/svg" width="41" height="40" viewBox="0 0 41 40" fill="none">
  <g clip-path="url(#clip0_278_423)">
    <path d="M14.5618 0.104004C12.7576 0.104004 10.994 0.639006 9.49383 1.64135C7.99371 2.6437 6.82451 4.06838 6.13408 5.73523C5.44365 7.40207 5.263 9.23622 5.61498 11.0057C5.96696 12.7752 6.83575 14.4006 8.1115 15.6764C9.38725 16.9521 11.0127 17.8209 12.7822 18.1729C14.5517 18.5249 16.3858 18.3442 18.0527 17.6538C19.7195 16.9634 21.1442 15.7942 22.1465 14.2941C23.1489 12.7939 23.6839 11.0303 23.6839 9.2261C23.6813 6.80758 22.7193 4.48887 21.0092 2.77871C19.299 1.06856 16.9803 0.106638 14.5618 0.104004ZM14.5618 13.3725C13.7417 13.3725 12.94 13.1293 12.2582 12.6737C11.5763 12.2181 11.0448 11.5705 10.731 10.8129C10.4172 10.0552 10.3351 9.2215 10.4951 8.41718C10.6551 7.61285 11.05 6.87403 11.6298 6.29415C12.2097 5.71426 12.9485 5.31936 13.7529 5.15937C14.5572 4.99937 15.3909 5.08149 16.1486 5.39532C16.9062 5.70915 17.5538 6.24061 18.0094 6.92248C18.465 7.60435 18.7082 8.40602 18.7082 9.2261C18.7082 9.77061 18.601 10.3098 18.3926 10.8129C18.1842 11.3159 17.8788 11.773 17.4937 12.1581C17.1087 12.5431 16.6516 12.8485 16.1486 13.0569C15.6455 13.2653 15.1063 13.3725 14.5618 13.3725Z" fill="#007B42"/>
    <path d="M15.3877 23.906C15.5138 24.5534 15.3776 25.2245 15.0091 25.7716C14.6405 26.3187 14.0697 26.697 13.4223 26.8234C11.1862 27.2642 9.17243 28.4673 7.72451 30.2274C6.27658 31.9875 5.48427 34.1954 5.48277 36.4745V37.4216C5.48277 38.0814 5.22066 38.7142 4.7541 39.1808C4.28753 39.6473 3.65474 39.9094 2.99492 39.9094C2.33511 39.9094 1.70231 39.6473 1.23575 39.1808C0.769191 38.7142 0.50708 38.0814 0.50708 37.4216L0.50708 36.4745C0.510317 33.0414 1.70466 29.7157 3.88634 27.0649C6.06802 24.4141 9.10187 22.6024 12.4703 21.9389C12.791 21.8765 13.1209 21.8778 13.4411 21.9429C13.7613 22.008 14.0655 22.1355 14.3364 22.3181C14.6073 22.5008 14.8396 22.735 15.02 23.0075C15.2004 23.2799 15.3253 23.5852 15.3877 23.906Z" fill="#007B42"/>
    <path d="M28.7027 16.6895C26.4065 16.6895 24.1618 17.3704 22.2526 18.6461C20.3433 19.9218 18.8553 21.735 17.9765 23.8565C17.0978 25.9779 16.8679 28.3123 17.3159 30.5644C17.7638 32.8165 18.8696 34.8852 20.4933 36.5089C22.1169 38.1325 24.1856 39.2383 26.4377 39.6863C28.6898 40.1342 31.0242 39.9043 33.1457 39.0256C35.2671 38.1469 37.0803 36.6588 38.356 34.7495C39.6317 32.8403 40.3127 30.5956 40.3127 28.2994C40.3127 25.2202 39.0895 22.2672 36.9122 20.0899C34.7349 17.9126 31.7819 16.6895 28.7027 16.6895ZM34.0831 33.6814C33.8933 34.0141 33.6293 34.2984 33.3117 34.5124C32.994 34.7263 32.6312 34.8639 32.2516 34.9147C31.872 34.9654 31.4858 34.9278 31.1231 34.8048C30.7604 34.6818 30.431 34.4767 30.1606 34.2055L26.1137 30.1586C25.8827 29.9275 25.6995 29.6531 25.5746 29.3512C25.4497 29.0493 25.3854 28.7257 25.3856 28.3989V22.5939C25.3856 21.9341 25.6477 21.3013 26.1143 20.8348C26.5808 20.3682 27.2136 20.1061 27.8734 20.1061C28.5333 20.1061 29.166 20.3682 29.6326 20.8348C30.0992 21.3013 30.3613 21.9341 30.3613 22.5939V27.3673L33.5756 30.5816C33.9885 30.9711 34.2619 31.4855 34.3536 32.0457C34.4453 32.6058 34.3502 33.1806 34.0831 33.6814Z" fill="#007B42"/>
  </g>
  <defs>
    <clipPath id="clip0_278_423">
      <rect width="39.8055" height="39.8055" fill="white" transform="translate(0.50708 0.104004)"/>
    </clipPath>
  </defs>
</svg>