<svg xmlns="http://www.w3.org/2000/svg" width="46" height="46" viewBox="0 0 46 46" fill="none">
  <g clip-path="url(#clip0_185_1743)">
    <path d="M16.3085 0.571411C14.2883 0.571411 12.3135 1.17047 10.6338 2.29283C8.95404 3.41519 7.64485 5.01044 6.87176 6.87686C6.09866 8.74328 5.89639 10.797 6.29051 12.7784C6.68463 14.7598 7.65744 16.5798 9.08594 18.0083C10.5144 19.4368 12.3344 20.4096 14.3158 20.8037C16.2972 21.1978 18.3509 20.9956 20.2174 20.2225C22.0838 19.4494 23.679 18.1402 24.8014 16.4605C25.9238 14.7807 26.5228 12.8059 26.5228 10.7857C26.5199 8.07761 25.4428 5.48128 23.5279 3.56636C21.6129 1.65145 19.0166 0.574361 16.3085 0.571411ZM16.3085 15.4286C15.3903 15.4286 14.4926 15.1563 13.7291 14.6461C12.9656 14.1359 12.3705 13.4108 12.0191 12.5624C11.6677 11.7141 11.5757 10.7805 11.7549 9.87992C11.934 8.97929 12.3762 8.15202 13.0255 7.5027C13.6748 6.85339 14.5021 6.4112 15.4028 6.23205C16.3034 6.05291 17.2369 6.14485 18.0853 6.49626C18.9336 6.84766 19.6588 7.44275 20.1689 8.20626C20.6791 8.96978 20.9514 9.86743 20.9514 10.7857C20.9514 11.3954 20.8313 11.9991 20.598 12.5624C20.3646 13.1257 20.0227 13.6376 19.5915 14.0687C19.1604 14.4998 18.6486 14.8418 18.0853 15.0751C17.522 15.3085 16.9182 15.4286 16.3085 15.4286Z" fill="white"/>
    <path d="M17.2336 27.2233C17.3748 27.9483 17.2223 28.6997 16.8096 29.3123C16.3969 29.9249 15.7578 30.3485 15.0329 30.49C12.5291 30.9837 10.2741 32.3308 8.65286 34.3016C7.03158 36.2724 6.1444 38.7448 6.14272 41.2967V42.3572C6.14272 43.096 5.84922 43.8045 5.3268 44.327C4.80438 44.8494 4.09582 45.1429 3.357 45.1429C2.61819 45.1429 1.90963 44.8494 1.38721 44.327C0.864783 43.8045 0.571289 43.096 0.571289 42.3572L0.571289 41.2967C0.574913 37.4525 1.91225 33.7287 4.35515 30.7605C6.79804 27.7923 10.1951 25.7637 13.9669 25.0207C14.326 24.9508 14.6954 24.9524 15.0539 25.0252C15.4124 25.0981 15.7531 25.2409 16.0564 25.4454C16.3598 25.6499 16.6199 25.9122 16.8218 26.2173C17.0238 26.5223 17.1637 26.8642 17.2336 27.2233Z" fill="white"/>
    <path d="M32.1426 19.1429C29.5714 19.1429 27.058 19.9053 24.9202 21.3338C22.7823 22.7622 21.1161 24.7926 20.1322 27.168C19.1482 29.5434 18.8908 32.1573 19.3924 34.6791C19.894 37.2008 21.1321 39.5172 22.9502 41.3353C24.7683 43.1534 27.0847 44.3915 29.6064 44.8931C32.1282 45.3947 34.742 45.1373 37.1175 44.1533C39.4929 43.1694 41.5232 41.5031 42.9517 39.3653C44.3801 37.2275 45.1426 34.714 45.1426 32.1429C45.1426 28.6951 43.7729 25.3885 41.335 22.9505C38.897 20.5125 35.5904 19.1429 32.1426 19.1429ZM38.1672 38.1693C37.9547 38.5418 37.6591 38.8602 37.3034 39.0997C36.9476 39.3392 36.5414 39.4934 36.1164 39.5502C35.6913 39.607 35.2589 39.5649 34.8528 39.4272C34.4467 39.2894 34.0778 39.0598 33.775 38.7562L29.2436 34.2247C28.9849 33.9659 28.7798 33.6587 28.6399 33.3206C28.5 32.9825 28.4281 32.6202 28.4283 32.2543V25.7543C28.4283 25.0155 28.7218 24.3069 29.2442 23.7845C29.7666 23.2621 30.4752 22.9686 31.214 22.9686C31.9528 22.9686 32.6614 23.2621 33.1838 23.7845C33.7062 24.3069 33.9997 25.0155 33.9997 25.7543V31.0992L37.5989 34.6983C38.0612 35.1344 38.3673 35.7105 38.47 36.3377C38.5727 36.9649 38.4663 37.6085 38.1672 38.1693Z" fill="white"/>
  </g>
  <defs>
    <clipPath id="clip0_185_1743">
      <rect width="44.5714" height="44.5714" fill="white" transform="translate(0.571289 0.571411)"/>
    </clipPath>
  </defs>
</svg>