<svg xmlns="http://www.w3.org/2000/svg" width="18" height="16" viewBox="0 0 22 17" fill="none">
  <path d="M21.5467 3.15832C21.2932 2.21583 20.5501 1.47288 19.6077 1.21909C17.8862 0.748047 10.9997 0.748047 10.9997 0.748047C10.9997 0.748047 4.1136 0.748047 2.39202 1.20125C1.46778 1.45476 0.70658 2.216 0.453063 3.15832C0 4.87976 0 8.44985 0 8.44985C0 8.44985 0 12.0379 0.453063 13.7413C0.70682 14.6837 1.44967 15.4266 2.39216 15.6804C4.13171 16.1516 11 16.1516 11 16.1516C11 16.1516 17.8862 16.1516 19.6077 15.6984C20.5502 15.4447 21.2932 14.7018 21.547 13.7594C21.9999 12.0379 21.9999 8.46793 21.9999 8.46793C21.9999 8.46793 22.018 4.87972 21.5467 3.15832ZM8.80724 11.748V5.15163L14.5336 8.44978L8.80724 11.748Z" fill="#007B42"/>
</svg>